<svg width="74" height="74" viewBox="0 0 74 74" fill="none" xmlns="http://www.w3.org/2000/svg">
<path d="M23.125 12.9808L37 20.9975L50.875 12.9808M23.125 61.0192V45.0167L9.25 37M64.75 37L50.875 45.0167V61.0192M10.0825 21.46L37 37.0308L63.9175 21.46M37 68.08V37M64.75 49.3333V24.6667C64.7489 23.5852 64.4634 22.5231 63.9222 21.5869C63.3811 20.6507 62.6032 19.8732 61.6667 19.3325L40.0833 6.99915C39.1459 6.45791 38.0825 6.17297 37 6.17297C35.9175 6.17297 34.8541 6.45791 33.9167 6.99915L12.3333 19.3325C11.3968 19.8732 10.6189 20.6507 10.0778 21.5869C9.53657 22.5231 9.25111 23.5852 9.25 24.6667V49.3333C9.25111 50.4147 9.53657 51.4768 10.0778 52.4131C10.6189 53.3493 11.3968 54.1268 12.3333 54.6675L33.9167 67.0008C34.8541 67.5421 35.9175 67.827 37 67.827C38.0825 67.827 39.1459 67.5421 40.0833 67.0008L61.6667 54.6675C62.6032 54.1268 63.3811 53.3493 63.9222 52.4131C64.4634 51.4768 64.7489 50.4147 64.75 49.3333Z" stroke="white" stroke-width="4" stroke-linecap="round" stroke-linejoin="round"/>
</svg>
