<svg width="32" height="32" viewBox="0 0 32 32" fill="none" xmlns="http://www.w3.org/2000/svg">
<g clip-path="url(#clip0_40_85)">
<path d="M12 1.33331V5.33331M20 1.33331V5.33331M12 26.6666V30.6666M20 26.6666V30.6666M26.6667 12H30.6667M26.6667 18.6666H30.6667M1.33337 12H5.33337M1.33337 18.6666H5.33337M8.00004 5.33331H24C25.4728 5.33331 26.6667 6.52722 26.6667 7.99998V24C26.6667 25.4727 25.4728 26.6666 24 26.6666H8.00004C6.52728 26.6666 5.33337 25.4727 5.33337 24V7.99998C5.33337 6.52722 6.52728 5.33331 8.00004 5.33331ZM12 12H20V20H12V12Z" stroke="white" stroke-width="4" stroke-linecap="round" stroke-linejoin="round"/>
</g>
<defs>
<clipPath id="clip0_40_85">
<rect width="32" height="32" fill="white"/>
</clipPath>
</defs>
</svg>
